<?xml version="1.0" standalone="no"?>
<!DOCTYPE svg PUBLIC "-//W3C//DTD SVG 20010904//EN"
 "http://www.w3.org/TR/2001/REC-SVG-20010904/DTD/svg10.dtd">
<svg version="1.0" xmlns="http://www.w3.org/2000/svg"
 width="40.000000pt" height="40.000000pt" viewBox="0 0 40.000000 40.000000"
 preserveAspectRatio="xMidYMid meet">
<metadata>
Created by potrace 1.16, written by Peter Selinger 2001-2019
</metadata>
<g transform="translate(0.000000,40.000000) scale(0.100000,-0.100000)"
fill="#000000" stroke="none">
<path d="M183 271 c-7 -11 -26 -21 -44 -23 -40 -4 -52 -28 -15 -28 23 0 25 -3
20 -32 -3 -18 -7 -39 -10 -46 -5 -16 14 -65 29 -74 7 -4 35 -8 64 -8 43 0 54
4 63 21 16 29 8 33 -27 13 -56 -32 -93 10 -74 83 12 42 28 53 83 53 15 0 30 5
33 10 4 6 -10 10 -36 10 -41 0 -42 0 -24 20 18 20 17 20 -16 20 -23 0 -38 -6
-46 -19z"/>
</g>
</svg>
